<svg height="512" viewBox="0 0 128 128" width="512" xmlns="http://www.w3.org/2000/svg" xmlns:xlink="http://www.w3.org/1999/xlink"><linearGradient id="a" gradientUnits="userSpaceOnUse" x1="106.033" x2="21.916" y1="117.332" y2="33.214"><stop offset="0" stop-color="#3ea2e5"/><stop offset="1" stop-color="#f2da30"/></linearGradient><path d="m116.6 102.664c0 11.652-23.105 20.779-52.6 20.779s-52.6-9.127-52.6-20.779a10.492 10.492 0 0 1 2.635-6.71 1.75 1.75 0 0 1 2.7 2.222 7.107 7.107 0 0 0 -1.839 4.488c0 8.344 19.73 17.279 49.1 17.279s49.1-8.935 49.1-17.279c0-7.4-14.629-14.285-34.934-16.518a185.3 185.3 0 0 1 -12.829 17.654 1.748 1.748 0 0 1 -2.666 0 185.26 185.26 0 0 1 -12.833-17.65c-11.262 1.238-20.972 3.907-27.424 7.56a1.75 1.75 0 1 1 -1.724-3.046c6.525-3.7 16.069-6.431 27.086-7.8-.231-.376-.462-.745-.693-1.128-10.389-17.199-15.618-32.247-15.542-44.727a32.468 32.468 0 0 1 51.118-26.561 1.75 1.75 0 0 1 -2.013 2.864 28.967 28.967 0 0 0 -45.6 23.708c-.157 24.868 23.084 55.528 28.958 62.88 5.874-7.348 29.114-38.007 28.964-62.865a28.968 28.968 0 0 0 -1.223-8.364 1.75 1.75 0 0 1 3.352-1.008 32.463 32.463 0 0 1 1.371 9.361c.075 12.469-5.153 27.517-15.542 44.715-.231.383-.462.752-.693 1.128 21.871 2.699 36.371 10.516 36.371 19.797zm-67.352 10.614a1.7 1.7 0 0 0 .224.014 1.75 1.75 0 0 0 .22-3.485c-7.766-.994-14-2.744-17.548-4.925a1.75 1.75 0 1 0 -1.833 2.981c3.963 2.437 10.689 4.36 18.937 5.415zm14.752.9q1.527 0 3.021-.036a1.75 1.75 0 0 0 1.709-1.79 1.73 1.73 0 0 0 -1.791-1.709c-2.439.056-4.979.043-7.458-.048a1.75 1.75 0 1 0 -.129 3.5c1.538.054 3.101.083 4.648.083zm24.737-92.232a1.75 1.75 0 1 0 2.987-1.824 32.746 32.746 0 0 0 -3.1-4.256 1.75 1.75 0 0 0 -2.654 2.281 29.213 29.213 0 0 1 2.767 3.799zm-24.737.296a14.778 14.778 0 1 1 -14.778 14.778 14.795 14.795 0 0 1 14.778-14.778zm0 3.5a11.278 11.278 0 1 0 11.277 11.278 11.29 11.29 0 0 0 -11.277-11.278z" fill="url(#a)"/></svg>