<svg width="50" height="50" viewBox="0 0 50 50" fill="none" xmlns="http://www.w3.org/2000/svg">
<path d="M49.2676 36.7181H48.1166L37.3335 18.7862C36.7195 17.7652 35.4025 17.3826 34.3352 17.9151L32.9728 18.5947L26.7453 12.3811C26.2859 11.9228 25.6495 11.6786 25.0019 11.7126C24.3532 11.746 23.7463 12.0536 23.3367 12.5566L14.6709 23.1987L14.6568 23.1926C13.6969 22.7821 12.5787 23.0699 11.9376 23.8925L1.93984 36.7181H0.732422C0.32793 36.7181 0 37.0453 0 37.4489C0 37.8525 0.32793 38.1797 0.732422 38.1797H49.2676C49.6721 38.1797 50 37.8525 50 37.4489C50 37.0453 49.6721 36.7181 49.2676 36.7181ZM24.4737 13.4782C24.6244 13.2931 24.8388 13.1845 25.0774 13.1722C25.3154 13.1598 25.5406 13.246 25.7096 13.4145L32.0034 19.6944L31.6562 20.8792C31.5426 21.2666 31.7652 21.6725 32.1535 21.7858C32.2222 21.8059 32.2914 21.8154 32.3595 21.8154C32.6765 21.8154 32.9687 21.6084 33.0621 21.2896L33.4415 19.9951L34.9903 19.2224C35.3772 19.0295 35.8549 19.1682 36.0774 19.5383L46.4083 36.7182H41.7132L31.2104 27.6057L32.1628 24.3569C32.2764 23.9695 32.0537 23.5637 31.6654 23.4503C31.2771 23.3371 30.8704 23.5592 30.7568 23.9466L29.9937 26.55L24.9205 22.1483C24.065 21.4061 22.8121 21.3931 21.9414 22.1172L18.6132 24.8845L16.0707 23.7972L24.4737 13.4782ZM24.6836 36.7181L19.6396 25.9336L22.8793 23.2399C23.195 22.9773 23.6493 22.982 23.9595 23.2512L39.4809 36.7181H24.6836ZM13.0938 24.7897C13.3264 24.4915 13.7319 24.3871 14.0798 24.536L18.1919 26.2944L23.0671 36.7181H9.80537L13.1149 30.774C13.3114 30.4212 13.184 29.9763 12.8304 29.7803C12.4768 29.5844 12.0309 29.7114 11.8345 30.0643L8.12959 36.7181H3.79561L13.0938 24.7897Z" fill="black"/>
</svg>
